<?xml version="1.0" encoding="UTF-8"?>
<!-- Generated by Pixelmator Pro 3.6.9 -->
<svg width="443" height="234" viewBox="0 0 443 234" xmlns="http://www.w3.org/2000/svg">
    <g id="Group">
        <path id="Path" fill="#000000" stroke="#000000" opacity="0.25" d="M 302.5 123.5 L 442.5 123.5 L 442.5 233.5 L 302.5 233.5 Z"/>
        <path id="path1" fill="#ffffff" stroke="#000000" d="M 300.5 120.5 L 440.5 120.5 L 440.5 230.5 L 300.5 230.5 Z"/>
        <g id="g1">
            <g id="g2">
                <text id="Worker" xml:space="preserve" x="317.726563" y="161" font-family="Helvetica" font-size="32" fill="#000000">Worker</text>
            </g>
        </g>
        <path id="path2" fill="#000000" stroke="#000000" opacity="0.25" d="M 302.5 3.5 L 442.5 3.5 L 442.5 113.5 L 302.5 113.5 Z"/>
        <path id="path3" fill="#ffffff" stroke="#000000" d="M 300.5 0.5 L 440.5 0.5 L 440.5 110.5 L 300.5 110.5 Z"/>
        <g id="g3">
            <g id="g4">
                <text id="text1" xml:space="preserve" x="317.726563" y="41" font-family="Helvetica" font-size="32" fill="#000000">Worker</text>
            </g>
        </g>
        <path id="path4" fill="#000000" stroke="#000000" opacity="0.25" d="M 2.5 63.5 L 112.5 63.5 L 112.5 173.5 L 2.5 173.5 Z"/>
        <path id="path5" fill="#ffffff" stroke="#000000" d="M 0.5 60.5 L 110.5 60.5 L 110.5 170.5 L 0.5 170.5 Z"/>
        <g id="g5">
            <g id="g6">
                <text id="Main" xml:space="preserve" x="18.320313" y="101" font-family="Helvetica" font-size="32" fill="#000000">Main</text>
            </g>
        </g>
        <path id="path6" fill="none" stroke="#000000" stroke-width="4" d="M 95.5 135.5 L 213 135.5 L 213 75.5 L 318.529999 75.5"/>
        <path id="path7" fill="#000000" stroke="#000000" stroke-width="4" d="M 326.029999 75.5 L 316.029999 80.5 L 318.529999 75.5 L 316.029999 70.5 Z"/>
        <path id="path8" fill="none" stroke="#000000" stroke-width="4" d="M 95.5 135.5 L 213 135.5 L 213 195.5 L 318.529999 195.5"/>
        <path id="path9" fill="#000000" stroke="#000000" stroke-width="4" d="M 326.029999 195.5 L 316.029999 200.5 L 318.529999 195.5 L 316.029999 190.5 Z"/>
        <g id="g7">
            <g id="g8">
                <text id="Pickle" xml:space="preserve" x="177.322754" y="59" font-family="Helvetica" font-size="26" fill="#000000">Pickle</text>
            </g>
        </g>
        <path id="path10" fill="#000000" stroke="#000000" opacity="0.25" d="M 17.5 113.5 L 97.5 113.5 L 97.5 163.5 L 17.5 163.5 Z"/>
        <path id="path11" fill="#dae8fc" stroke="#6c8ebf" d="M 15.5 110.5 L 95.5 110.5 L 95.5 160.5 L 15.5 160.5 Z"/>
        <g id="g9">
            <g id="g10">
                <text id="Data" xml:space="preserve" x="19.203125" y="147" font-family="Helvetica" font-size="32" fill="#000000">Data</text>
            </g>
        </g>
        <path id="path12" fill="#000000" stroke="#000000" opacity="0.25" d="M 332.5 53.5 L 412.5 53.5 L 412.5 103.5 L 332.5 103.5 Z"/>
        <path id="path13" fill="#dae8fc" stroke="#6c8ebf" d="M 330.5 50.5 L 410.5 50.5 L 410.5 100.5 L 330.5 100.5 Z"/>
        <g id="g11">
            <g id="g12">
                <text id="text2" xml:space="preserve" x="334.203125" y="87" font-family="Helvetica" font-size="32" fill="#000000">Data</text>
            </g>
        </g>
        <path id="path14" fill="#000000" stroke="#000000" opacity="0.25" d="M 332.5 173.5 L 412.5 173.5 L 412.5 223.5 L 332.5 223.5 Z"/>
        <path id="path15" fill="#dae8fc" stroke="#6c8ebf" d="M 330.5 170.5 L 410.5 170.5 L 410.5 220.5 L 330.5 220.5 Z"/>
        <g id="g13">
            <g id="g14">
                <text id="text3" xml:space="preserve" x="334.203125" y="207" font-family="Helvetica" font-size="32" fill="#000000">Data</text>
            </g>
        </g>
    </g>
</svg>
