<?xml version="1.0" encoding="UTF-8"?>
<!-- Generated by Pixelmator Pro 3.6.9 -->
<svg width="813" height="234" viewBox="0 0 813 234" xmlns="http://www.w3.org/2000/svg">
    <g id="Group">
        <path id="Path" fill="#000000" stroke="#000000" opacity="0.25" d="M 672.5 123.5 L 812.5 123.5 L 812.5 233.5 L 672.5 233.5 Z"/>
        <path id="path1" fill="#ffffff" stroke="#000000" d="M 670.5 120.5 L 810.5 120.5 L 810.5 230.5 L 670.5 230.5 Z"/>
        <g id="g1">
            <g id="g2">
                <text id="Worker" xml:space="preserve" x="687.726563" y="161" font-family="Helvetica" font-size="32" fill="#000000">Worker</text>
            </g>
        </g>
        <path id="path2" fill="#000000" stroke="#000000" opacity="0.25" d="M 672.5 3.5 L 812.5 3.5 L 812.5 113.5 L 672.5 113.5 Z"/>
        <path id="path3" fill="#ffffff" stroke="#000000" d="M 670.5 0.5 L 810.5 0.5 L 810.5 110.5 L 670.5 110.5 Z"/>
        <g id="g3">
            <g id="g4">
                <text id="text1" xml:space="preserve" x="687.726563" y="41" font-family="Helvetica" font-size="32" fill="#000000">Worker</text>
            </g>
        </g>
        <path id="path4" fill="#000000" stroke="#000000" opacity="0.25" d="M 222.5 73.5 L 482.5 73.5 L 482.5 183.5 L 222.5 183.5 Z"/>
        <path id="path5" fill="#ffffff" stroke="#000000" d="M 220.5 70.5 L 480.5 70.5 L 480.5 180.5 L 220.5 180.5 Z"/>
        <path id="path6" fill="none" stroke="#000000" stroke-width="4" d="M 473 145.5 L 586.799988 145.5 L 586.799988 75.5 L 688.530029 75.5"/>
        <path id="path7" fill="#000000" stroke="#000000" stroke-width="4" d="M 696.030029 75.5 L 686.030029 80.5 L 688.530029 75.5 L 686.030029 70.5 Z"/>
        <path id="path8" fill="none" stroke="#000000" stroke-width="4" d="M 473 145.5 L 586.799988 145.5 L 586.799988 195.5 L 688.530029 195.5"/>
        <path id="path9" fill="#000000" stroke="#000000" stroke-width="4" d="M 696.030029 195.5 L 686.030029 200.5 L 688.530029 195.5 L 686.030029 190.5 Z"/>
        <g id="g5">
            <g id="g6">
                <text id="Reference" xml:space="preserve" x="518.020996" y="56" font-family="Helvetica" font-size="26" fill="#000000">Reference</text>
            </g>
        </g>
        <path id="path10" fill="#000000" stroke="#000000" opacity="0.25" d="M 230 123.5 L 475 123.5 L 475 173.5 L 230 173.5 Z"/>
        <path id="path11" fill="#dae8fc" stroke="#6c8ebf" d="M 228 120.5 L 473 120.5 L 473 170.5 L 228 170.5 Z"/>
        <g id="g7">
            <g id="g8">
                <text id="Data-read-only" xml:space="preserve" x="232.398438" y="157" font-family="Helvetica" font-size="32" fill="#000000">Data (read-only)</text>
            </g>
        </g>
        <path id="path12" fill="#000000" stroke="#000000" opacity="0.25" d="M 2.5 73.5 L 112.5 73.5 L 112.5 183.5 L 2.5 183.5 Z"/>
        <path id="path13" fill="#ffffff" stroke="#000000" d="M 0.5 70.5 L 110.5 70.5 L 110.5 180.5 L 0.5 180.5 Z"/>
        <g id="g9">
            <g id="g10">
                <text id="Main" xml:space="preserve" x="18.320313" y="111" font-family="Helvetica" font-size="32" fill="#000000">Main</text>
            </g>
        </g>
        <g id="Group-copy">
            <g id="g11">
                <text id="RamDisk" xml:space="preserve" x="283.109375" y="111" font-family="Helvetica" font-size="32" fill="#000000">RamDisk</text>
            </g>
        </g>
        <path id="path14" fill="none" stroke="#000000" stroke-width="4" d="M 95.5 145.5 L 216.029999 145.5"/>
        <path id="path15" fill="#000000" stroke="#000000" stroke-width="4" d="M 223.529999 145.5 L 213.529999 150.5 L 216.029999 145.5 L 213.529999 140.5 Z"/>
        <g id="g12">
            <g id="g13">
                <text id="Write" xml:space="preserve" x="132.899414" y="132" font-family="Helvetica" font-size="26" fill="#000000">Write</text>
            </g>
        </g>
        <path id="path16" fill="#000000" stroke="#000000" opacity="0.25" d="M 17.5 123.5 L 97.5 123.5 L 97.5 173.5 L 17.5 173.5 Z"/>
        <path id="path17" fill="#dae8fc" stroke="#6c8ebf" d="M 15.5 120.5 L 95.5 120.5 L 95.5 170.5 L 15.5 170.5 Z"/>
        <g id="g14">
            <g id="g15">
                <text id="Data" xml:space="preserve" x="19.203125" y="157" font-family="Helvetica" font-size="32" fill="#000000">Data</text>
            </g>
        </g>
        <path id="path18" fill="#000000" stroke="#000000" opacity="0.25" d="M 702.5 53.5 L 782.5 53.5 L 782.5 103.5 L 702.5 103.5 Z"/>
        <path id="path19" fill="#fff2cc" stroke="#d6b656" d="M 700.5 50.5 L 780.5 50.5 L 780.5 100.5 L 700.5 100.5 Z"/>
        <g id="g16">
            <g id="g17">
                <text id="text2" xml:space="preserve" x="704.203125" y="87" font-family="Helvetica" font-size="32" fill="#000000">Data</text>
            </g>
        </g>
        <path id="path20" fill="#000000" stroke="#000000" opacity="0.25" d="M 702.5 173.5 L 782.5 173.5 L 782.5 223.5 L 702.5 223.5 Z"/>
        <path id="path21" fill="#fff2cc" stroke="#d6b656" d="M 700.5 170.5 L 780.5 170.5 L 780.5 220.5 L 700.5 220.5 Z"/>
        <g id="g18">
            <g id="g19">
                <text id="text3" xml:space="preserve" x="704.203125" y="207" font-family="Helvetica" font-size="32" fill="#000000">Data</text>
            </g>
        </g>
    </g>
</svg>
